<mxfile host="app.diagrams.net" agent="Mozilla/5.0 (X11; Linux x86_64) AppleWebKit/537.36 (KHTML, like Gecko) Chrome/131.0.0.0 Safari/537.36" version="24.9.0">
  <diagram name="PÃ gina-1" id="YVHWd9X6C8wZxe6zpNKP">
    <mxGraphModel dx="-63" dy="797" grid="1" gridSize="10" guides="1" tooltips="1" connect="1" arrows="1" fold="1" page="1" pageScale="1" pageWidth="827" pageHeight="1169" math="0" shadow="0">
      <root>
        <mxCell id="0" />
        <mxCell id="1" parent="0" />
        <mxCell id="NQTOUwLC0F2Nmya9_8Xx-1" value="Persona" style="swimlane;fontStyle=1;align=center;verticalAlign=top;childLayout=stackLayout;horizontal=1;startSize=26;horizontalStack=0;resizeParent=1;resizeParentMax=0;resizeLast=0;collapsible=1;marginBottom=0;whiteSpace=wrap;html=1;" vertex="1" parent="1">
          <mxGeometry x="2174" y="160" width="340" height="160" as="geometry" />
        </mxCell>
        <mxCell id="NQTOUwLC0F2Nmya9_8Xx-2" value="&lt;div&gt;&lt;div&gt;# Username&amp;nbsp;&lt;span style=&quot;background-color: initial;&quot;&gt;:String&lt;/span&gt;&lt;/div&gt;&lt;/div&gt;# Password :String&lt;div&gt;# isAdmin : int&amp;nbsp;&lt;br&gt;&lt;/div&gt;" style="text;strokeColor=none;fillColor=none;align=left;verticalAlign=top;spacingLeft=4;spacingRight=4;overflow=hidden;rotatable=0;points=[[0,0.5],[1,0.5]];portConstraint=eastwest;whiteSpace=wrap;html=1;" vertex="1" parent="NQTOUwLC0F2Nmya9_8Xx-1">
          <mxGeometry y="26" width="340" height="54" as="geometry" />
        </mxCell>
        <mxCell id="NQTOUwLC0F2Nmya9_8Xx-3" value="" style="line;strokeWidth=1;fillColor=none;align=left;verticalAlign=middle;spacingTop=-1;spacingLeft=3;spacingRight=3;rotatable=0;labelPosition=right;points=[];portConstraint=eastwest;strokeColor=inherit;" vertex="1" parent="NQTOUwLC0F2Nmya9_8Xx-1">
          <mxGeometry y="80" width="340" height="8" as="geometry" />
        </mxCell>
        <mxCell id="NQTOUwLC0F2Nmya9_8Xx-4" value="+ persona(username:String, password:String, isAdmin:int)&lt;div&gt;&lt;div&gt;+&amp;nbsp;&lt;span style=&quot;background-color: initial;&quot;&gt;getUsernameA(); | setUsernameA();&lt;/span&gt;&lt;/div&gt;&lt;div&gt;+&amp;nbsp;&lt;span style=&quot;background-color: initial;&quot;&gt;getisAdmin(); | setisAdmin();&lt;/span&gt;&lt;/div&gt;&lt;/div&gt;&lt;div&gt;+&amp;nbsp;&lt;span style=&quot;background-color: initial;&quot;&gt;getPassword(); | setPassword();&lt;/span&gt;&lt;span style=&quot;background-color: initial;&quot;&gt;&lt;/span&gt;&lt;/div&gt;" style="text;strokeColor=none;fillColor=none;align=left;verticalAlign=top;spacingLeft=4;spacingRight=4;overflow=hidden;rotatable=0;points=[[0,0.5],[1,0.5]];portConstraint=eastwest;whiteSpace=wrap;html=1;" vertex="1" parent="NQTOUwLC0F2Nmya9_8Xx-1">
          <mxGeometry y="88" width="340" height="72" as="geometry" />
        </mxCell>
        <mxCell id="NQTOUwLC0F2Nmya9_8Xx-5" style="edgeStyle=orthogonalEdgeStyle;rounded=0;orthogonalLoop=1;jettySize=auto;html=1;exitX=0.5;exitY=0;exitDx=0;exitDy=0;entryX=0;entryY=0.5;entryDx=0;entryDy=0;startArrow=none;startFill=0;endArrow=classic;endFill=1;" edge="1" parent="1" source="NQTOUwLC0F2Nmya9_8Xx-6" target="NQTOUwLC0F2Nmya9_8Xx-2">
          <mxGeometry relative="1" as="geometry" />
        </mxCell>
        <mxCell id="NQTOUwLC0F2Nmya9_8Xx-6" value="Admin" style="swimlane;fontStyle=1;align=center;verticalAlign=top;childLayout=stackLayout;horizontal=1;startSize=26;horizontalStack=0;resizeParent=1;resizeParentMax=0;resizeLast=0;collapsible=1;marginBottom=0;whiteSpace=wrap;html=1;" vertex="1" parent="1">
          <mxGeometry x="1654" y="260" width="460" height="120" as="geometry" />
        </mxCell>
        <mxCell id="NQTOUwLC0F2Nmya9_8Xx-7" value="&lt;div&gt;&lt;br&gt;&lt;/div&gt;" style="text;strokeColor=none;fillColor=none;align=left;verticalAlign=top;spacingLeft=4;spacingRight=4;overflow=hidden;rotatable=0;points=[[0,0.5],[1,0.5]];portConstraint=eastwest;whiteSpace=wrap;html=1;" vertex="1" parent="NQTOUwLC0F2Nmya9_8Xx-6">
          <mxGeometry y="26" width="460" height="34" as="geometry" />
        </mxCell>
        <mxCell id="NQTOUwLC0F2Nmya9_8Xx-8" value="" style="line;strokeWidth=1;fillColor=none;align=left;verticalAlign=middle;spacingTop=-1;spacingLeft=3;spacingRight=3;rotatable=0;labelPosition=right;points=[];portConstraint=eastwest;strokeColor=inherit;" vertex="1" parent="NQTOUwLC0F2Nmya9_8Xx-6">
          <mxGeometry y="60" width="460" height="8" as="geometry" />
        </mxCell>
        <mxCell id="NQTOUwLC0F2Nmya9_8Xx-9" value="&lt;div&gt;&lt;span style=&quot;background-color: initial;&quot;&gt;+&amp;nbsp;&lt;/span&gt;&lt;span style=&quot;background-color: initial;&quot;&gt;getisAdmin(); | setisAdmin();&lt;/span&gt;&lt;br&gt;&lt;/div&gt;" style="text;strokeColor=none;fillColor=none;align=left;verticalAlign=top;spacingLeft=4;spacingRight=4;overflow=hidden;rotatable=0;points=[[0,0.5],[1,0.5]];portConstraint=eastwest;whiteSpace=wrap;html=1;" vertex="1" parent="NQTOUwLC0F2Nmya9_8Xx-6">
          <mxGeometry y="68" width="460" height="52" as="geometry" />
        </mxCell>
        <mxCell id="NQTOUwLC0F2Nmya9_8Xx-10" style="edgeStyle=orthogonalEdgeStyle;rounded=0;orthogonalLoop=1;jettySize=auto;html=1;exitX=0.5;exitY=0;exitDx=0;exitDy=0;entryX=1;entryY=0.5;entryDx=0;entryDy=0;startArrow=none;startFill=0;endArrow=classic;endFill=1;" edge="1" parent="1" source="NQTOUwLC0F2Nmya9_8Xx-11" target="NQTOUwLC0F2Nmya9_8Xx-2">
          <mxGeometry relative="1" as="geometry">
            <Array as="points">
              <mxPoint x="2534" y="380" />
              <mxPoint x="2534" y="213" />
            </Array>
          </mxGeometry>
        </mxCell>
        <mxCell id="NQTOUwLC0F2Nmya9_8Xx-11" value="Client" style="swimlane;fontStyle=1;align=center;verticalAlign=top;childLayout=stackLayout;horizontal=1;startSize=26;horizontalStack=0;resizeParent=1;resizeParentMax=0;resizeLast=0;collapsible=1;marginBottom=0;whiteSpace=wrap;html=1;" vertex="1" parent="1">
          <mxGeometry x="2239" y="380" width="480" height="150" as="geometry" />
        </mxCell>
        <mxCell id="NQTOUwLC0F2Nmya9_8Xx-12" value="&lt;div&gt;&lt;span style=&quot;background-color: initial;&quot;&gt;- Nombre :String&lt;/span&gt;&lt;/div&gt;&lt;div&gt;&lt;span style=&quot;background-color: initial;&quot;&gt;- Telefono :Float&lt;/span&gt;&lt;/div&gt;" style="text;strokeColor=none;fillColor=none;align=left;verticalAlign=top;spacingLeft=4;spacingRight=4;overflow=hidden;rotatable=0;points=[[0,0.5],[1,0.5]];portConstraint=eastwest;whiteSpace=wrap;html=1;" vertex="1" parent="NQTOUwLC0F2Nmya9_8Xx-11">
          <mxGeometry y="26" width="480" height="34" as="geometry" />
        </mxCell>
        <mxCell id="NQTOUwLC0F2Nmya9_8Xx-13" value="" style="line;strokeWidth=1;fillColor=none;align=left;verticalAlign=middle;spacingTop=-1;spacingLeft=3;spacingRight=3;rotatable=0;labelPosition=right;points=[];portConstraint=eastwest;strokeColor=inherit;" vertex="1" parent="NQTOUwLC0F2Nmya9_8Xx-11">
          <mxGeometry y="60" width="480" height="28" as="geometry" />
        </mxCell>
        <mxCell id="NQTOUwLC0F2Nmya9_8Xx-14" value="+ Client(nombre:String,Telefon:Float password:String,UsernameCString,isAdmin:int)&lt;div&gt;&lt;/div&gt;&lt;div&gt;+&amp;nbsp;&lt;span style=&quot;background-color: initial;&quot;&gt;getNombre(); | set&lt;/span&gt;Nombre&lt;span style=&quot;background-color: initial;&quot;&gt;();&lt;/span&gt;&lt;/div&gt;&lt;div&gt;+&amp;nbsp;&lt;span style=&quot;background-color: initial;&quot;&gt;getTelefon(); | set&lt;/span&gt;Telefon&lt;span style=&quot;background-color: initial;&quot;&gt;();&lt;/span&gt;&lt;span style=&quot;background-color: initial;&quot;&gt;&lt;/span&gt;&lt;/div&gt;" style="text;strokeColor=none;fillColor=none;align=left;verticalAlign=top;spacingLeft=4;spacingRight=4;overflow=hidden;rotatable=0;points=[[0,0.5],[1,0.5]];portConstraint=eastwest;whiteSpace=wrap;html=1;" vertex="1" parent="NQTOUwLC0F2Nmya9_8Xx-11">
          <mxGeometry y="88" width="480" height="62" as="geometry" />
        </mxCell>
        <mxCell id="NQTOUwLC0F2Nmya9_8Xx-15" style="edgeStyle=orthogonalEdgeStyle;rounded=0;orthogonalLoop=1;jettySize=auto;html=1;entryX=0.004;entryY=0.8;entryDx=0;entryDy=0;startArrow=classic;startFill=1;endArrow=none;endFill=0;entryPerimeter=0;startSize=6;" edge="1" parent="1" source="NQTOUwLC0F2Nmya9_8Xx-17" target="NQTOUwLC0F2Nmya9_8Xx-23">
          <mxGeometry relative="1" as="geometry" />
        </mxCell>
        <mxCell id="NQTOUwLC0F2Nmya9_8Xx-16" style="edgeStyle=orthogonalEdgeStyle;rounded=0;orthogonalLoop=1;jettySize=auto;html=1;exitX=0.25;exitY=0;exitDx=0;exitDy=0;endArrow=none;endFill=0;" edge="1" parent="1" source="NQTOUwLC0F2Nmya9_8Xx-17" target="NQTOUwLC0F2Nmya9_8Xx-11">
          <mxGeometry relative="1" as="geometry" />
        </mxCell>
        <mxCell id="NQTOUwLC0F2Nmya9_8Xx-17" value="Reserva" style="swimlane;fontStyle=1;align=center;verticalAlign=top;childLayout=stackLayout;horizontal=1;startSize=26;horizontalStack=0;resizeParent=1;resizeParentMax=0;resizeLast=0;collapsible=1;marginBottom=0;whiteSpace=wrap;html=1;" vertex="1" parent="1">
          <mxGeometry x="2534" y="789" width="310" height="150" as="geometry" />
        </mxCell>
        <mxCell id="NQTOUwLC0F2Nmya9_8Xx-18" value="&lt;div&gt;+ Npersonas :int&lt;div&gt;&lt;span style=&quot;background-color: initial;&quot;&gt;- FechaHora : date&lt;/span&gt;&lt;/div&gt;&lt;/div&gt;" style="text;strokeColor=none;fillColor=none;align=left;verticalAlign=top;spacingLeft=4;spacingRight=4;overflow=hidden;rotatable=0;points=[[0,0.5],[1,0.5]];portConstraint=eastwest;whiteSpace=wrap;html=1;" vertex="1" parent="NQTOUwLC0F2Nmya9_8Xx-17">
          <mxGeometry y="26" width="310" height="44" as="geometry" />
        </mxCell>
        <mxCell id="NQTOUwLC0F2Nmya9_8Xx-19" value="" style="line;strokeWidth=1;fillColor=none;align=left;verticalAlign=middle;spacingTop=-1;spacingLeft=3;spacingRight=3;rotatable=0;labelPosition=right;points=[];portConstraint=eastwest;strokeColor=inherit;" vertex="1" parent="NQTOUwLC0F2Nmya9_8Xx-17">
          <mxGeometry y="70" width="310" height="8" as="geometry" />
        </mxCell>
        <mxCell id="NQTOUwLC0F2Nmya9_8Xx-20" value="+ Reserva(IdReserva:int,IdExperiencia:int,Npersona:int)&lt;div&gt;+&amp;nbsp;&lt;span style=&quot;background-color: initial;&quot;&gt;getIDReserva(); | setIDReserva();&lt;/span&gt;&lt;/div&gt;&lt;div&gt;+&amp;nbsp;&lt;span style=&quot;background-color: initial;&quot;&gt;getIDExperiencia(); | setIDExperiencia();&lt;/span&gt;&lt;span style=&quot;background-color: initial;&quot;&gt;&lt;/span&gt;&lt;/div&gt;&lt;div&gt;+&amp;nbsp;&lt;span style=&quot;background-color: initial;&quot;&gt;getNPersonas(); | setNPersonas();&lt;/span&gt;&lt;span style=&quot;background-color: initial;&quot;&gt;&lt;/span&gt;&lt;/div&gt;&lt;div&gt;&lt;span style=&quot;background-color: initial;&quot;&gt;&lt;br&gt;&lt;/span&gt;&lt;/div&gt;" style="text;strokeColor=none;fillColor=none;align=left;verticalAlign=top;spacingLeft=4;spacingRight=4;overflow=hidden;rotatable=0;points=[[0,0.5],[1,0.5]];portConstraint=eastwest;whiteSpace=wrap;html=1;" vertex="1" parent="NQTOUwLC0F2Nmya9_8Xx-17">
          <mxGeometry y="78" width="310" height="72" as="geometry" />
        </mxCell>
        <mxCell id="NQTOUwLC0F2Nmya9_8Xx-21" style="edgeStyle=orthogonalEdgeStyle;rounded=0;orthogonalLoop=1;jettySize=auto;html=1;entryX=1;entryY=0.5;entryDx=0;entryDy=0;endArrow=classic;endFill=1;" edge="1" parent="1" source="NQTOUwLC0F2Nmya9_8Xx-22" target="NQTOUwLC0F2Nmya9_8Xx-28">
          <mxGeometry relative="1" as="geometry" />
        </mxCell>
        <mxCell id="NQTOUwLC0F2Nmya9_8Xx-22" value="ReservaAcciÃ³n" style="swimlane;fontStyle=1;align=center;verticalAlign=top;childLayout=stackLayout;horizontal=1;startSize=26;horizontalStack=0;resizeParent=1;resizeParentMax=0;resizeLast=0;collapsible=1;marginBottom=0;whiteSpace=wrap;html=1;" vertex="1" parent="1">
          <mxGeometry x="2984" y="640" width="260" height="150" as="geometry" />
        </mxCell>
        <mxCell id="NQTOUwLC0F2Nmya9_8Xx-23" value="&lt;div&gt;- NombreAccion: String&lt;/div&gt;&lt;div&gt;-FechaAccion: String&lt;/div&gt;&lt;div&gt;-TipoAccion: String&lt;/div&gt;" style="text;strokeColor=none;fillColor=none;align=left;verticalAlign=top;spacingLeft=4;spacingRight=4;overflow=hidden;rotatable=0;points=[[0,0.5],[1,0.5]];portConstraint=eastwest;whiteSpace=wrap;html=1;" vertex="1" parent="NQTOUwLC0F2Nmya9_8Xx-22">
          <mxGeometry y="26" width="260" height="64" as="geometry" />
        </mxCell>
        <mxCell id="NQTOUwLC0F2Nmya9_8Xx-24" value="" style="line;strokeWidth=1;fillColor=none;align=left;verticalAlign=middle;spacingTop=-1;spacingLeft=3;spacingRight=3;rotatable=0;labelPosition=right;points=[];portConstraint=eastwest;strokeColor=inherit;" vertex="1" parent="NQTOUwLC0F2Nmya9_8Xx-22">
          <mxGeometry y="90" width="260" height="8" as="geometry" />
        </mxCell>
        <mxCell id="NQTOUwLC0F2Nmya9_8Xx-25" value="&lt;div&gt;+&amp;nbsp;&lt;span style=&quot;background-color: initial;&quot;&gt;getIDReserva(); | setIDReserva();&lt;/span&gt;&lt;/div&gt;&lt;div&gt;+&amp;nbsp;&lt;span style=&quot;background-color: initial;&quot;&gt;getNombre(); | setNombre();&lt;/span&gt;&lt;/div&gt;&lt;div&gt;&lt;span style=&quot;background-color: initial;&quot;&gt;&lt;br&gt;&lt;/span&gt;&lt;/div&gt;" style="text;strokeColor=none;fillColor=none;align=left;verticalAlign=top;spacingLeft=4;spacingRight=4;overflow=hidden;rotatable=0;points=[[0,0.5],[1,0.5]];portConstraint=eastwest;whiteSpace=wrap;html=1;" vertex="1" parent="NQTOUwLC0F2Nmya9_8Xx-22">
          <mxGeometry y="98" width="260" height="52" as="geometry" />
        </mxCell>
        <mxCell id="NQTOUwLC0F2Nmya9_8Xx-26" style="edgeStyle=orthogonalEdgeStyle;rounded=0;orthogonalLoop=1;jettySize=auto;html=1;entryX=1;entryY=0.5;entryDx=0;entryDy=0;startArrow=none;startFill=0;endArrow=none;endFill=0;" edge="1" parent="1" source="NQTOUwLC0F2Nmya9_8Xx-27" target="NQTOUwLC0F2Nmya9_8Xx-12">
          <mxGeometry relative="1" as="geometry" />
        </mxCell>
        <mxCell id="NQTOUwLC0F2Nmya9_8Xx-27" value="ReservaCancelada" style="swimlane;fontStyle=1;align=center;verticalAlign=top;childLayout=stackLayout;horizontal=1;startSize=26;horizontalStack=0;resizeParent=1;resizeParentMax=0;resizeLast=0;collapsible=1;marginBottom=0;whiteSpace=wrap;html=1;" vertex="1" parent="1">
          <mxGeometry x="2760" y="240" width="330" height="120" as="geometry" />
        </mxCell>
        <mxCell id="NQTOUwLC0F2Nmya9_8Xx-28" value="+ FechaCancelada :date" style="text;strokeColor=none;fillColor=none;align=left;verticalAlign=top;spacingLeft=4;spacingRight=4;overflow=hidden;rotatable=0;points=[[0,0.5],[1,0.5]];portConstraint=eastwest;whiteSpace=wrap;html=1;" vertex="1" parent="NQTOUwLC0F2Nmya9_8Xx-27">
          <mxGeometry y="26" width="330" height="34" as="geometry" />
        </mxCell>
        <mxCell id="NQTOUwLC0F2Nmya9_8Xx-29" value="" style="line;strokeWidth=1;fillColor=none;align=left;verticalAlign=middle;spacingTop=-1;spacingLeft=3;spacingRight=3;rotatable=0;labelPosition=right;points=[];portConstraint=eastwest;strokeColor=inherit;" vertex="1" parent="NQTOUwLC0F2Nmya9_8Xx-27">
          <mxGeometry y="60" width="330" height="8" as="geometry" />
        </mxCell>
        <mxCell id="NQTOUwLC0F2Nmya9_8Xx-30" value="+ ReservaCancelada(IdReserva,int FechaCancelada:date)&lt;div&gt;+&amp;nbsp;&lt;span style=&quot;background-color: initial;&quot;&gt;getIDReserva(); | setIDReserva();&lt;/span&gt;&lt;/div&gt;&lt;div&gt;+&amp;nbsp;&lt;span style=&quot;background-color: initial;&quot;&gt;getFechaCancelada(); | setFechaCancelada();&lt;/span&gt;&lt;span style=&quot;background-color: initial;&quot;&gt;&lt;/span&gt;&lt;/div&gt;" style="text;strokeColor=none;fillColor=none;align=left;verticalAlign=top;spacingLeft=4;spacingRight=4;overflow=hidden;rotatable=0;points=[[0,0.5],[1,0.5]];portConstraint=eastwest;whiteSpace=wrap;html=1;" vertex="1" parent="NQTOUwLC0F2Nmya9_8Xx-27">
          <mxGeometry y="68" width="330" height="52" as="geometry" />
        </mxCell>
        <mxCell id="NQTOUwLC0F2Nmya9_8Xx-31" value="Oferta" style="swimlane;fontStyle=1;align=center;verticalAlign=top;childLayout=stackLayout;horizontal=1;startSize=26;horizontalStack=0;resizeParent=1;resizeParentMax=0;resizeLast=0;collapsible=1;marginBottom=0;whiteSpace=wrap;html=1;" vertex="1" parent="1">
          <mxGeometry x="1704" y="625" width="640" height="280" as="geometry" />
        </mxCell>
        <mxCell id="NQTOUwLC0F2Nmya9_8Xx-32" value="# FechaHora[10:00] : date&amp;nbsp;&lt;br&gt;+ Descripcion :String&lt;br&gt;+ Modalidad :int&lt;br&gt;+ Precio : Float&lt;br&gt;+ IdCategoria :int" style="text;strokeColor=none;fillColor=none;align=left;verticalAlign=top;spacingLeft=4;spacingRight=4;overflow=hidden;rotatable=0;points=[[0,0.5],[1,0.5]];portConstraint=eastwest;whiteSpace=wrap;html=1;" vertex="1" parent="NQTOUwLC0F2Nmya9_8Xx-31">
          <mxGeometry y="26" width="640" height="114" as="geometry" />
        </mxCell>
        <mxCell id="NQTOUwLC0F2Nmya9_8Xx-33" value="" style="line;strokeWidth=1;fillColor=none;align=left;verticalAlign=middle;spacingTop=-1;spacingLeft=3;spacingRight=3;rotatable=0;labelPosition=right;points=[];portConstraint=eastwest;strokeColor=inherit;" vertex="1" parent="NQTOUwLC0F2Nmya9_8Xx-31">
          <mxGeometry y="140" width="640" height="8" as="geometry" />
        </mxCell>
        <mxCell id="NQTOUwLC0F2Nmya9_8Xx-34" value="+ Tienda(idExperiencia:int,FechHora:Date,Descripcion:String,Modalidad:int,Precio:Float IdCategoria:int,Persona:int)&lt;div&gt;+ getIDExperiencia(); | setIDExperiencia();&lt;/div&gt;&lt;div&gt;+ getFechaHora(); | setFechaHora();&lt;/div&gt;&lt;div&gt;+ getDescripcion(); | setDescripcion();&lt;/div&gt;&lt;div&gt;+ getModalidad(); | setModalidad()&lt;/div&gt;&lt;div&gt;+ getPrecio(); | setPrecio();&lt;/div&gt;&lt;div&gt;+ getIDCategoria(); | setIDCategoria();&lt;/div&gt;&lt;div&gt;+ getPersonas(); | setPersonas();&lt;/div&gt;" style="text;strokeColor=none;fillColor=none;align=left;verticalAlign=top;spacingLeft=4;spacingRight=4;overflow=hidden;rotatable=0;points=[[0,0.5],[1,0.5]];portConstraint=eastwest;whiteSpace=wrap;html=1;" vertex="1" parent="NQTOUwLC0F2Nmya9_8Xx-31">
          <mxGeometry y="148" width="640" height="132" as="geometry" />
        </mxCell>
        <mxCell id="NQTOUwLC0F2Nmya9_8Xx-35" value="" style="edgeStyle=orthogonalEdgeStyle;rounded=0;orthogonalLoop=1;jettySize=auto;html=1;entryX=-0.004;entryY=0.376;entryDx=0;entryDy=0;endArrow=none;endFill=0;strokeWidth=1;endSize=18;entryPerimeter=0;startArrow=diamondThin;startFill=1;startSize=18;" edge="1" parent="1" source="NQTOUwLC0F2Nmya9_8Xx-32" target="NQTOUwLC0F2Nmya9_8Xx-18">
          <mxGeometry relative="1" as="geometry" />
        </mxCell>
        <mxCell id="NQTOUwLC0F2Nmya9_8Xx-36" value="1..1" style="text;html=1;align=center;verticalAlign=middle;resizable=0;points=[];autosize=1;strokeColor=none;fillColor=none;fontSize=16;" vertex="1" parent="1">
          <mxGeometry x="2864" y="360" width="50" height="30" as="geometry" />
        </mxCell>
        <mxCell id="NQTOUwLC0F2Nmya9_8Xx-37" value="0..&lt;span style=&quot;background-color: initial;&quot;&gt;*&lt;/span&gt;" style="text;html=1;align=center;verticalAlign=middle;resizable=0;points=[];autosize=1;strokeColor=none;fillColor=none;fontSize=16;" vertex="1" parent="1">
          <mxGeometry x="3089" y="250" width="50" height="30" as="geometry" />
        </mxCell>
        <mxCell id="NQTOUwLC0F2Nmya9_8Xx-38" value="&lt;span style=&quot;color: rgb(33, 37, 41); font-family: -apple-system, BlinkMacSystemFont, &amp;quot;Segoe UI&amp;quot;, Roboto, &amp;quot;Helvetica Neue&amp;quot;, Arial, &amp;quot;Noto Sans&amp;quot;, sans-serif, &amp;quot;Apple Color Emoji&amp;quot;, &amp;quot;Segoe UI Emoji&amp;quot;, &amp;quot;Segoe UI Symbol&amp;quot;, &amp;quot;Noto Color Emoji&amp;quot;; font-size: 15px; text-align: left; text-wrap: wrap; background-color: rgb(255, 255, 255);&quot;&gt;0..*&lt;/span&gt;" style="text;html=1;align=center;verticalAlign=middle;resizable=0;points=[];autosize=1;strokeColor=none;fillColor=none;fontSize=16;" vertex="1" parent="1">
          <mxGeometry x="2344" y="665" width="50" height="30" as="geometry" />
        </mxCell>
        <mxCell id="NQTOUwLC0F2Nmya9_8Xx-39" value="1..*" style="text;html=1;align=center;verticalAlign=middle;resizable=0;points=[];autosize=1;strokeColor=none;fillColor=none;fontSize=16;" vertex="1" parent="1">
          <mxGeometry x="2554" y="750" width="50" height="30" as="geometry" />
        </mxCell>
        <mxCell id="NQTOUwLC0F2Nmya9_8Xx-40" value="&lt;span style=&quot;color: rgb(33, 37, 41); font-family: -apple-system, BlinkMacSystemFont, &amp;quot;Segoe UI&amp;quot;, Roboto, &amp;quot;Helvetica Neue&amp;quot;, Arial, &amp;quot;Noto Sans&amp;quot;, sans-serif, &amp;quot;Apple Color Emoji&amp;quot;, &amp;quot;Segoe UI Emoji&amp;quot;, &amp;quot;Segoe UI Symbol&amp;quot;, &amp;quot;Noto Color Emoji&amp;quot;; font-size: 15px; text-align: left; text-wrap: wrap; background-color: rgba(0, 0, 0, 0.075);&quot;&gt;0..*&lt;/span&gt;" style="text;html=1;align=center;verticalAlign=middle;resizable=0;points=[];autosize=1;strokeColor=none;fillColor=none;fontSize=16;" vertex="1" parent="1">
          <mxGeometry x="2484" y="540" width="50" height="30" as="geometry" />
        </mxCell>
        <mxCell id="NQTOUwLC0F2Nmya9_8Xx-41" value="1" style="text;html=1;align=center;verticalAlign=middle;resizable=0;points=[];autosize=1;strokeColor=none;fillColor=none;fontSize=16;" vertex="1" parent="1">
          <mxGeometry x="2694" y="750" width="30" height="30" as="geometry" />
        </mxCell>
        <mxCell id="NQTOUwLC0F2Nmya9_8Xx-42" value="0..*" style="text;html=1;align=center;verticalAlign=middle;resizable=0;points=[];autosize=1;strokeColor=none;fillColor=none;fontSize=16;" vertex="1" parent="1">
          <mxGeometry x="3044" y="610" width="50" height="30" as="geometry" />
        </mxCell>
        <mxCell id="NQTOUwLC0F2Nmya9_8Xx-43" value="1..1" style="text;html=1;align=center;verticalAlign=middle;resizable=0;points=[];autosize=1;strokeColor=none;fillColor=none;fontSize=16;" vertex="1" parent="1">
          <mxGeometry x="2934" y="710" width="50" height="30" as="geometry" />
        </mxCell>
        <mxCell id="NQTOUwLC0F2Nmya9_8Xx-44" value="1..1" style="text;html=1;align=center;verticalAlign=middle;resizable=0;points=[];autosize=1;strokeColor=none;fillColor=none;fontSize=16;" vertex="1" parent="1">
          <mxGeometry x="2730" y="400" width="50" height="30" as="geometry" />
        </mxCell>
        <mxCell id="NQTOUwLC0F2Nmya9_8Xx-45" value="1..1" style="text;html=1;align=center;verticalAlign=middle;resizable=0;points=[];autosize=1;strokeColor=none;fillColor=none;fontSize=16;" vertex="1" parent="1">
          <mxGeometry x="2534" y="150" width="50" height="30" as="geometry" />
        </mxCell>
        <mxCell id="NQTOUwLC0F2Nmya9_8Xx-46" style="edgeStyle=orthogonalEdgeStyle;rounded=0;orthogonalLoop=1;jettySize=auto;html=1;entryX=1.007;entryY=0.068;entryDx=0;entryDy=0;entryPerimeter=0;exitX=0.583;exitY=-0.009;exitDx=0;exitDy=0;exitPerimeter=0;endArrow=classic;endFill=1;endSize=6;" edge="1" parent="1" source="NQTOUwLC0F2Nmya9_8Xx-22" target="NQTOUwLC0F2Nmya9_8Xx-2">
          <mxGeometry relative="1" as="geometry" />
        </mxCell>
        <mxCell id="NQTOUwLC0F2Nmya9_8Xx-47" value="0..*" style="text;html=1;align=center;verticalAlign=middle;resizable=0;points=[];autosize=1;strokeColor=none;fillColor=none;fontSize=16;" vertex="1" parent="1">
          <mxGeometry x="3144" y="610" width="50" height="30" as="geometry" />
        </mxCell>
        <mxCell id="NQTOUwLC0F2Nmya9_8Xx-48" style="edgeStyle=orthogonalEdgeStyle;rounded=0;orthogonalLoop=1;jettySize=auto;html=1;entryX=0.021;entryY=1;entryDx=0;entryDy=0;entryPerimeter=0;" edge="1" parent="1" source="NQTOUwLC0F2Nmya9_8Xx-31" target="NQTOUwLC0F2Nmya9_8Xx-4">
          <mxGeometry relative="1" as="geometry" />
        </mxCell>
        <mxCell id="NQTOUwLC0F2Nmya9_8Xx-49" value="AccionesPossibles" style="swimlane;fontStyle=1;align=center;verticalAlign=top;childLayout=stackLayout;horizontal=1;startSize=26;horizontalStack=0;resizeParent=1;resizeParentMax=0;resizeLast=0;collapsible=1;marginBottom=0;whiteSpace=wrap;html=1;" vertex="1" parent="1">
          <mxGeometry x="2984" y="900" width="260" height="130" as="geometry" />
        </mxCell>
        <mxCell id="NQTOUwLC0F2Nmya9_8Xx-50" value="&lt;div&gt;- NombreAccion: String&lt;/div&gt;&lt;div&gt;-FechaAccion: String&lt;/div&gt;&lt;div&gt;&lt;br&gt;&lt;/div&gt;" style="text;strokeColor=none;fillColor=none;align=left;verticalAlign=top;spacingLeft=4;spacingRight=4;overflow=hidden;rotatable=0;points=[[0,0.5],[1,0.5]];portConstraint=eastwest;whiteSpace=wrap;html=1;" vertex="1" parent="NQTOUwLC0F2Nmya9_8Xx-49">
          <mxGeometry y="26" width="260" height="44" as="geometry" />
        </mxCell>
        <mxCell id="NQTOUwLC0F2Nmya9_8Xx-51" value="" style="line;strokeWidth=1;fillColor=none;align=left;verticalAlign=middle;spacingTop=-1;spacingLeft=3;spacingRight=3;rotatable=0;labelPosition=right;points=[];portConstraint=eastwest;strokeColor=inherit;" vertex="1" parent="NQTOUwLC0F2Nmya9_8Xx-49">
          <mxGeometry y="70" width="260" height="8" as="geometry" />
        </mxCell>
        <mxCell id="NQTOUwLC0F2Nmya9_8Xx-52" value="&lt;div&gt;+&amp;nbsp;&lt;span style=&quot;background-color: initial;&quot;&gt;getIDReserva(); | setIDReserva();&lt;/span&gt;&lt;/div&gt;&lt;div&gt;+&amp;nbsp;&lt;span style=&quot;background-color: initial;&quot;&gt;getNombre(); | setNombre();&lt;/span&gt;&lt;/div&gt;&lt;div&gt;&lt;span style=&quot;background-color: initial;&quot;&gt;&lt;br&gt;&lt;/span&gt;&lt;/div&gt;" style="text;strokeColor=none;fillColor=none;align=left;verticalAlign=top;spacingLeft=4;spacingRight=4;overflow=hidden;rotatable=0;points=[[0,0.5],[1,0.5]];portConstraint=eastwest;whiteSpace=wrap;html=1;" vertex="1" parent="NQTOUwLC0F2Nmya9_8Xx-49">
          <mxGeometry y="78" width="260" height="52" as="geometry" />
        </mxCell>
        <mxCell id="NQTOUwLC0F2Nmya9_8Xx-53" style="edgeStyle=orthogonalEdgeStyle;rounded=0;orthogonalLoop=1;jettySize=auto;html=1;entryX=0.498;entryY=0.99;entryDx=0;entryDy=0;entryPerimeter=0;" edge="1" parent="1" source="NQTOUwLC0F2Nmya9_8Xx-49" target="NQTOUwLC0F2Nmya9_8Xx-25">
          <mxGeometry relative="1" as="geometry" />
        </mxCell>
      </root>
    </mxGraphModel>
  </diagram>
</mxfile>
